# xmcd
#
# Track frame offsets: 
#        150
#        10938
#        24268
#        37562
#        52939
#        65947
#        79123
#        92178
#        109585
#        121724
#        135949
#        146535
#        158856
#        171059
#        186185
#        197731
#        208717
#        222205
#
# Disc length: 3071 seconds
#
# Revision: 3
# Processed by: cddbd v1.5.2PL0 Copyright (c) Steve Scherf et al.
# Submitted via: ExactAudioCopy v1.0b2
#
DISCID=e90bfd12
DTITLE=Blues - Blues CD2
DYEAR=2009
DGENRE=Blues
TTITLE0=Dinah Washington - Go Pretty Daddy
TTITLE1=Big Joe Turner - I Got Love For Sale
TTITLE2=Memphis Slim - Whiskey Store Blues
TTITLE3=Charlie Parker - My Melancholy Baby
TTITLE4=Sonny Terry - Blowing The Blues
TTITLE5=Dinah Washington - My Song
TTITLE6=T-Bone Walker - Mean Old World
TTITLE7=John Lee Hooker - Who's Been Loving You
TTITLE8=Big Joe Turner - Milk And Another Blues
TTITLE9=T-Bone Walker - Goodbye Blues
TTITLE10=Sarah Vaughan - The Nearness Of You
TTITLE11=Brownie Mc Ghee - Coal Miner's Blues
TTITLE12=Muddy Waters - Rolling Stone
TTITLE13=Sonny Boy Williamson - Love Me Baby
TTITLE14=Charlie Parker - Perhaps
TTITLE15=Dinah Washington - TV Is The Thing
TTITLE16=Muddy Waters - Walking Blues
TTITLE17=Oscar Peterson - Whispering
EXTD=(c) and (p) T2 Entertainment YEAR: 2009
EXTT0=
EXTT1=
EXTT2=
EXTT3=
EXTT4=
EXTT5=
EXTT6=
EXTT7=
EXTT8=
EXTT9=
EXTT10=
EXTT11=
EXTT12=
EXTT13=
EXTT14=
EXTT15=
EXTT16=
EXTT17=
PLAYORDER=
